PathFileType	4	(X/Y/Z)	C:/Users/beibeiliu/ov580/test_trc/User3\sequence.12_training_dense_right.trc
DataRate	CameraRate	NumFrames	NumMarkers	Units	OrigDataRate	OrigDataStartFrame	OrigNumFrames
120	120	12	19	mm	120	76	101
Frame#	Time	ThumbCMC			ThumbMCP			ThumbIP			ThumbTip			IndexMCP			IndexPIP			IndexTip			MiddleMCP			MiddlePIP			MiddleTip			RingMCP			RingPIP			RingTip			PinkyMCP			PinkyPIP			PinkyTip			BackHand1			BackHand2			BackHand3	
		X0	Y0	Z0	X1	Y1	Z1	X2	Y2	Z2	X3	Y3	Z3	X4	Y4	Z4	X5	Y5	Z5	X6	Y6	Z6	X7	Y7	Z7	X8	Y8	Z8	X9	Y9	Z9	X10	Y10	Z10	X11	Y11	Z11	X12	Y12	Z12	X13	Y13	Z13	X14	Y14	Z14	X15	Y15	Z15	X16	Y16	Z16	X17	Y17	Z17	X18	Y18	Z18	
75	0.625	119.911	-19.3029	-15.9759	107.06	4.20997	-36.6569	85.2532	14.9375	-54.9058	55.8873	10.9648	-64.5093	89.512	-43.9833	-83.4774	78.2766	-40.5003	-106.903	66.6468	-37.2097	-127.883	70.264	-45.8007	-78.6666	47.8869	-18.4073	-86.8874	49.3479	2.02938	-51.4408	56.7645	-63.1324	-67.2789	44.2851	-58.7885	-85.6124	23.0372	-46.8382	-102.729	50.4282	-71.2749	-36.4151	35.6788	-80.3465	-50.43	18.6395	-88.3835	-69.251	83.4924	-74.1126	-22.0533	97.48	-74.3603	6.59758	118.679	-57.8352	-24.1689	
76	0.633333	133.225	-31.0014	-14.099	125.15	-8.09721	-43.6055	107.891	4.08109	-62.2562	83.1133	8.2068	-74.0907	104.639	-56.9078	-80.118	100.174	-52.0055	-108.682	84.2167	-49.4478	-132.897	84.8799	-53.4754	-83.9536	68.6926	-25.2432	-95.7273	72.2475	-0.661834	-66.8052	71.4025	-66.1677	-68.4315	55.598	-61.9553	-94.183	42.0912	-49.0766	-112.079	57.7451	-69.964	-42.7467	43.186	-77.6985	-57.0985	28.4125	-84.7153	-77.8958	90.5458	-75.9624	-18.786	95.215	-81.3872	5.60161	123.775	-68.5782	-15.5508	
77	0.641667	144.613	-44.659	-12.1906	140.645	-25.9578	-39.3815	130.709	-14.9895	-66.1608	107.177	-10.5757	-81.8234	125.555	-77.8786	-82.1914	120.049	-76.1606	-107.184	109.89	-75.2408	-130.615	101.551	-72.7531	-84.2086	95.7599	-47.2871	-102.867	90.3217	-16.7159	-78.1254	81.5125	-83.408	-72.5201	78.108	-79.5094	-94.9139	68.2898	-69.9276	-117.984	64.4888	-80.86	-43.9771	51.5494	-88.8246	-62.1045	37.9389	-94.8386	-82.867	96.0248	-86.1071	-19.5112	97.038	-85.9238	8.67121	127.21	-81.0656	-11.4589	
78	0.65	154.049	-56.4786	-4.91881	154.72	-40.8665	-35.5063	146.843	-35.6044	-70.6784	123.188	-37.6837	-83.6873	142.106	-98.7296	-68.2161	145.162	-103.081	-97.6386	137.356	-104.327	-122.69	121.794	-97.6703	-74.5483	112.745	-76.6864	-101.165	108.856	-40.8572	-87.0723	100.335	-104.955	-65.9444	94.5215	-106.78	-92.3886	90.1247	-98.1737	-117.622	79.3622	-102.237	-44.9764	68.668	-110.108	-58.8433	61.2243	-119.138	-80.1422	108.567	-102.702	-11.8324	109.89	-97.2359	17.7096	138.492	-93.9318	-3.30369	
79	0.658333	162.065	-62.4313	-1.96695	164.648	-51.3307	-34.1634	157.934	-48.7072	-60.8302	139.787	-55.9804	-81.2521	166.773	-114.042	-61.6336	166.417	-121.377	-88.1363	169.458	-122.215	-112.293	145.364	-115.362	-66.7636	138.088	-99.8643	-95.8121	126.625	-59.36	-86.5909	125.633	-121.865	-55.4517	123.719	-128.647	-85.1945	118.314	-123.038	-113.669	98.9841	-121.784	-38.6811	96.8526	-132.62	-56.3479	85.2826	-145.028	-77.4498	124.248	-113.767	-3.32548	122.302	-105.986	21.587	153.115	-98.7704	7.16327	
80	0.666667	169.183	-59.5199	2.2008	170.915	-50.9592	-34.5873	166.251	-51.2225	-62.8688	150.978	-60.0168	-84.3482	185.772	-115.621	-52.9266	193.848	-120.652	-79.0152	195.325	-123.785	-104.239	167.314	-120.488	-61.5521	159.711	-108.82	-91.5738	143.977	-72.8877	-88.7666	149.639	-129.778	-49.6475	152.092	-135.914	-76.6316	149.882	-134.673	-106.292	126.024	-130.636	-34.7833	122.148	-147.2	-53.5112	118.756	-159.325	-76.2554	143.491	-116.838	1.11255	135.003	-107.638	25.3372	166.693	-96.0748	12.5207	
81	0.675	169.07	-49.8649	1.61259	168.046	-41.9191	-33.0234	166.31	-43.4672	-62.9634	153.076	-60.9218	-78.4887	205.335	-97.877	-49.8181	212.886	-102.634	-76.0077	216.713	-106.453	-102.307	187.914	-113.034	-60.4965	177.071	-100.197	-89.5419	153.407	-71.696	-87.6942	172.833	-126.114	-48.6162	179.781	-130.295	-76.0996	173.733	-131.824	-104.237	149.61	-132.489	-33.932	151.389	-148.249	-50.7003	155.406	-160.497	-70.1	158.359	-111.833	4.20074	145.957	-107.245	28.5255	174.978	-89.2765	14.1415	
82	0.683333	162.464	-35.9667	0.736077	157.88	-31.1941	-32.8547	156.826	-36.0951	-63.0955	149.731	-54.4004	-80.0739	209.668	-74.5782	-50.5675	219.056	-74.7109	-73.5385	222.35	-77.5557	-96.744	199.861	-88.1608	-57.3897	191.352	-79.2555	-86.8281	150.358	-63.3064	-84.6766	192.082	-107.477	-48.6673	198.678	-109.301	-76.0107	195.025	-111.068	-100.557	169.777	-120.283	-31.5782	178.104	-135.864	-49.898	186.498	-144.798	-68.0531	174.522	-103.044	1.05142	162.482	-98.6431	27.1176	181.992	-71.6253	12.5501	
83	0.691667	149.42	-30.3057	3.43412	142.867	-21.7875	-33.1014	141.793	-23.9679	-60.9869	142.02	-44.0595	-81.2619	205.769	-46.369	-47.8324	216.404	-41.153	-75.6524	221.875	-40.1804	-99.8763	201.171	-64.2976	-57.4506	187.201	-58.5127	-87.0839	147.953	-54.6744	-84.4464	198.841	-81.7081	-46.0974	206.745	-85.2991	-72.1737	205.654	-82.2835	-103.461	186.916	-104.488	-35.1055	198.965	-113.116	-53.1319	207.875	-120.678	-69.6584	182.673	-87.6187	2.55802	166.461	-89.1917	29.4869	181.132	-54.7909	14.8775	
84	0.7	137.133	-24.3577	4.19793	130.291	-19.2916	-29.9967	127.616	-17.8633	-62.0238	131.604	-35.9748	-78.3772	195.147	-17.2492	-49.1107	202.527	-16.0996	-75.4901	207.803	-12.5472	-99.5993	193.026	-38.6318	-57.1066	176.125	-38.4037	-89.5346	139.374	-49.9637	-84.7258	200.503	-57.3057	-50.1857	207.832	-62.2098	-75.2139	204.24	-55.8114	-102.729	189.341	-85.5365	-33.0677	205.351	-93.0975	-51.1431	216.466	-92.7437	-71.4177	185.335	-64.634	-0.257296	172.684	-74.6575	26.0162	174.167	-40.7108	12.8321	
85	0.708333	123.588	-21.2644	3.04928	112.051	-15.9055	-28.6804	112.822	-17.4573	-59.1858	117.502	-29.7054	-80.7698	173.931	-0.579105	-48.3169	181.007	7.66034	-74.4497	185.678	12.4804	-100.206	178.59	-15.9632	-62.4291	165.818	-21.9465	-89.3808	128.572	-42.8759	-85.7744	192.784	-39.5991	-53.4572	197.275	-33.2008	-75.9851	196.689	-34.9631	-106.556	191.824	-64.1291	-39.1818	205.43	-66.3522	-54.6331	217.237	-63.0751	-78.1446	178.139	-49.1702	0.128614	168.069	-62.5878	25.9001	161.218	-29.2695	15.5623	
86	0.716667	106.408	-21.6133	1.90001	91.8122	-19.4463	-28.1572	92.1118	-17.4723	-61.9043	101.473	-29.5031	-82.2602	149.84	13.6208	-52.7299	151.778	20.8404	-74.6614	157.277	27.5359	-103.854	159.639	-3.5109	-63.6036	144.082	-12.3561	-93.266	115.67	-40.7281	-85.9125	178.013	-18.3483	-57.7765	179.508	-10.1289	-82.1263	176.311	-8.22082	-110.464	182.86	-43.7646	-42.533	197.361	-38.1552	-59.8524	208.563	-34.6909	-78.1973	168.741	-34.3061	-5.85735	165.875	-47.8	22.4244	147.19	-16.3463	10.4719	
